<?xml version="1.0" standalone="no"?>
<!DOCTYPE svg PUBLIC "-//W3C//DTD SVG 20010904//EN"
 "http://www.w3.org/TR/2001/REC-SVG-20010904/DTD/svg10.dtd">
<svg version="1.0" xmlns="http://www.w3.org/2000/svg"
 width="800.000000pt" height="534.000000pt" viewBox="0 0 800.000000 534.000000"
 preserveAspectRatio="xMidYMid meet">

<g transform="translate(0.000000,534.000000) scale(0.100000,-0.100000)"
fill="#000000" stroke="none">
<path d="M0 2670 l0 -2670 4000 0 4000 0 0 2670 0 2670 -4000 0 -4000 0 0
-2670z m7990 0 l0 -2660 -3990 0 -3990 0 0 2660 0 2660 3990 0 3990 0 0 -2660z"/>
<path d="M4078 2953 c12 -2 30 -2 40 0 9 3 -1 5 -23 4 -22 0 -30 -2 -17 -4z"/>
<path d="M4168 2943 c7 -3 16 -2 19 1 4 3 -2 6 -13 5 -11 0 -14 -3 -6 -6z"/>
<path d="M3895 2930 c-16 -7 -17 -9 -3 -9 9 -1 20 4 23 9 7 11 7 11 -20 0z"/>
<path d="M4260 2930 c14 -4 32 -8 40 -9 13 -1 13 0 0 9 -8 5 -26 9 -40 9 l-25
-1 25 -8z"/>
<path d="M3845 2910 c-16 -7 -17 -9 -3 -9 9 -1 20 4 23 9 7 11 7 11 -20 0z"/>
<path d="M4370 2895 c14 -8 30 -14 35 -14 6 0 -1 6 -15 14 -14 8 -29 14 -35
14 -5 0 1 -6 15 -14z"/>
<path d="M2677 2860 c9 -66 24 -106 16 -45 -3 28 -9 59 -14 70 -5 12 -6 2 -2
-25z"/>
<path d="M2540 2870 c0 -5 5 -10 10 -10 6 0 10 5 10 10 0 6 -4 10 -10 10 -5 0
-10 -4 -10 -10z"/>
<path d="M3750 2860 l-25 -21 28 12 c15 7 27 16 27 21 0 11 -1 10 -30 -12z"/>
<path d="M2474 2861 c5 -8 56 -3 56 5 0 2 -14 4 -31 4 -16 0 -28 -4 -25 -9z"/>
<path d="M4430 2866 c0 -3 14 -12 30 -21 17 -9 30 -13 30 -11 0 3 -13 12 -30
21 -16 9 -30 13 -30 11z"/>
<path d="M2408 2853 c6 -2 18 -2 25 0 6 3 1 5 -13 5 -14 0 -19 -2 -12 -5z"/>
<path d="M2348 2843 c7 -3 16 -2 19 1 4 3 -2 6 -13 5 -11 0 -14 -3 -6 -6z"/>
<path d="M5779 2833 c-15 -2 -37 -16 -50 -31 l-24 -27 28 24 27 25 73 -19 c39
-10 106 -28 147 -41 41 -12 105 -30 143 -40 39 -11 67 -24 67 -32 0 -7 -7 -41
-15 -75 -8 -34 -24 -107 -35 -162 -12 -55 -30 -143 -41 -195 -11 -52 -26 -120
-34 -150 -8 -30 -23 -102 -35 -160 -11 -58 -28 -134 -36 -170 -8 -36 -17 -75
-19 -87 -4 -19 1 -24 37 -33 24 -6 66 -18 94 -26 l51 -14 -12 -63 c-23 -113
-47 -222 -51 -229 -2 -3 -44 4 -91 17 -48 14 -90 21 -94 17 -3 -4 -13 -41 -23
-82 -38 -172 -54 -247 -61 -288 l-7 -42 144 6 c78 3 148 7 154 9 6 2 16 31 23
64 11 54 15 61 36 61 34 0 77 18 100 43 16 17 17 20 2 14 -20 -8 -21 -3 -5 23
19 29 3 35 -37 12 -43 -26 -45 -14 -5 31 17 19 30 37 30 41 0 12 -38 6 -50 -9
-22 -26 -28 -16 -17 29 l10 44 86 7 c47 3 93 7 101 8 16 2 19 12 54 177 13 63
21 119 17 123 -4 4 -45 18 -92 31 -78 21 -84 24 -81 47 2 13 48 229 102 479
54 250 101 472 105 492 l7 37 -53 15 c-385 109 -369 106 -511 105 -73 -1 -145
-4 -159 -6z m461 -1703 c-19 -12 -30 -12 -30 -1 0 10 31 20 40 14 2 -2 -2 -8
-10 -13z"/>
<path d="M2056 2782 l-128 -47 -76 -215 c-41 -118 -77 -217 -78 -219 -2 -2
-25 7 -51 20 -64 31 -155 37 -224 14 -80 -27 -160 -110 -182 -191 -21 -75 -21
-115 1 -179 l17 -50 -25 -22 c-20 -18 -22 -22 -8 -23 10 0 20 -11 24 -25 6
-24 8 -25 23 -10 22 19 45 19 62 -1 19 -23 82 -53 128 -60 23 -4 41 -10 41
-14 0 -4 -15 -49 -33 -100 l-34 -93 23 -130 c13 -71 26 -132 29 -135 3 -3 160
15 348 41 188 26 347 48 353 47 9 0 49 -182 80 -365 4 -22 8 -43 10 -46 3 -5
243 25 361 45 l43 8 -15 -29 c-34 -65 -44 -63 255 -63 223 0 276 3 300 15 17
9 30 20 30 25 0 5 12 11 28 13 15 2 10 3 -11 2 -38 -3 -38 -3 -21 16 30 33 3
43 -39 15 -45 -31 -48 -19 -6 29 22 25 29 39 22 46 -15 15 -45 -3 -63 -35 -13
-26 -30 -35 -30 -17 0 6 -10 8 -22 5 -77 -17 -88 -17 -88 0 0 9 -8 19 -17 23
-20 6 -93 83 -93 97 0 13 -32 35 -52 36 -9 0 -42 -26 -73 -57 -45 -46 -58 -54
-66 -42 -7 11 -11 12 -17 1 -10 -15 -39 53 -49 113 -4 24 -9 33 -16 26 -7 -7
-2 -33 13 -81 12 -39 21 -72 19 -74 -2 -2 -25 -6 -50 -10 l-45 -7 -33 183
c-18 101 -35 195 -37 211 -5 21 -11 27 -32 27 -15 0 -176 -22 -359 -48 l-332
-48 -5 26 c-43 217 -43 243 -3 355 105 295 136 380 187 525 32 91 83 237 114
325 31 88 60 168 66 178 16 27 -20 21 -164 -31z m-346 -507 c40 -21 44 -33 27
-81 -8 -21 -41 -113 -74 -204 -56 -157 -60 -165 -87 -168 -77 -9 -182 71 -212
160 -69 208 151 394 346 293z m110 -129 c0 -28 -24 -41 -40 -21 -16 20 -5 45
20 45 14 0 20 -7 20 -24z m1475 -1166 c-3 -5 -13 -10 -21 -10 -8 0 -12 5 -9
10 3 6 13 10 21 10 8 0 12 -4 9 -10z"/>
<path d="M3679 2803 c-13 -16 -12 -17 4 -4 16 13 21 21 13 21 -2 0 -10 -8 -17
-17z"/>
<path d="M4530 2796 c0 -2 8 -10 18 -17 15 -13 16 -12 3 4 -13 16 -21 21 -21
13z"/>
<path d="M5659 2734 c-18 -19 -27 -32 -19 -29 14 6 66 65 58 65 -2 0 -20 -16
-39 -36z"/>
<path d="M3612 2737 c-31 -33 -27 -42 4 -10 14 14 23 27 21 29 -2 2 -13 -6
-25 -19z"/>
<path d="M4579 2733 c12 -18 24 -33 27 -33 9 0 -15 37 -33 51 -12 10 -11 5 6
-18z"/>
<path d="M2707 2700 c3 -25 10 -54 14 -65 5 -12 6 -2 2 25 -3 25 -10 54 -14
65 -5 12 -6 2 -2 -25z"/>
<path d="M3551 2655 c-33 -49 -22 -52 12 -4 16 21 25 39 20 39 -4 0 -19 -16
-32 -35z"/>
<path d="M4637 2641 c16 -27 30 -48 32 -46 4 5 -48 95 -54 95 -3 0 7 -22 22
-49z"/>
<path d="M4034 2652 c-143 -67 -246 -384 -243 -747 2 -131 0 -136 30 75 37
266 143 454 263 467 126 15 191 -43 240 -212 l14 -50 -5 90 c-10 206 -44 307
-120 359 -54 37 -122 44 -179 18z"/>
<path d="M5550 2615 c-7 -9 -8 -15 -2 -15 5 0 12 7 16 15 3 8 4 15 2 15 -2 0
-9 -7 -16 -15z"/>
<path d="M2731 2579 c0 -13 4 -33 9 -44 7 -14 8 -8 3 20 -7 46 -13 59 -12 24z"/>
<path d="M5519 2573 c-13 -16 -12 -17 4 -4 9 7 17 15 17 17 0 8 -8 3 -21 -13z"/>
<path d="M4670 2561 c0 -5 5 -13 10 -16 6 -3 10 -2 10 4 0 5 -4 13 -10 16 -5
3 -10 2 -10 -4z"/>
<path d="M2386 2539 c-3 -8 -24 -84 -46 -169 -40 -152 -123 -417 -142 -453 -6
-12 -5 -42 3 -88 l12 -69 31 5 c108 17 158 24 214 30 l64 7 -7 47 c-4 25 -19
114 -35 196 -16 83 -41 229 -55 325 -15 96 -29 177 -31 179 -2 2 -6 -2 -8 -10z"/>
<path d="M5412 2461 c-45 -49 -82 -92 -82 -96 0 -3 12 7 26 22 14 15 44 48 67
73 58 62 81 90 75 90 -2 0 -41 -40 -86 -89z"/>
<path d="M5770 2491 c0 -19 -220 -293 -362 -450 -82 -91 -145 -168 -141 -172
9 -7 355 -101 357 -97 13 30 32 97 27 96 -19 -2 -48 3 -60 11 -11 7 -3 21 37
67 45 50 53 66 68 133 21 101 63 272 71 291 3 8 7 24 8 35 2 11 6 37 10 58 5
25 4 37 -4 37 -6 0 -11 -4 -11 -9z"/>
<path d="M4701 2474 c0 -11 3 -14 6 -6 3 7 2 16 -1 19 -3 4 -6 -2 -5 -13z"/>
<path d="M2752 2455 c0 -16 2 -22 5 -12 2 9 2 23 0 30 -3 6 -5 -1 -5 -18z"/>
<path d="M2762 2395 c0 -16 2 -22 5 -12 2 9 2 23 0 30 -3 6 -5 -1 -5 -18z"/>
<path d="M4722 2375 c0 -16 2 -22 5 -12 2 9 2 23 0 30 -3 6 -5 -1 -5 -18z"/>
<path d="M3426 2355 c-3 -9 -6 -26 -5 -38 1 -16 4 -12 10 12 10 34 6 55 -5 26z"/>
<path d="M2771 2334 c0 -11 3 -14 6 -6 3 7 2 16 -1 19 -3 4 -6 -2 -5 -13z"/>
<path d="M5265 2298 l-40 -43 43 40 c39 36 47 45 39 45 -2 0 -21 -19 -42 -42z"/>
<path d="M4732 2285 c0 -16 2 -22 5 -12 2 9 2 23 0 30 -3 6 -5 -1 -5 -18z"/>
<path d="M3401 2234 c0 -11 3 -14 6 -6 3 7 2 16 -1 19 -3 4 -6 -2 -5 -13z"/>
<path d="M5180 2205 c-24 -25 -42 -45 -39 -45 3 0 25 20 49 45 24 25 42 45 39
45 -3 0 -25 -20 -49 -45z"/>
<path d="M4731 2214 c0 -11 3 -14 6 -6 3 7 2 16 -1 19 -3 4 -6 -2 -5 -13z"/>
<path d="M2801 2184 c0 -11 3 -14 6 -6 3 7 2 16 -1 19 -3 4 -6 -2 -5 -13z"/>
<path d="M4742 2095 c-1 -38 -11 -119 -21 -180 -59 -340 -199 -565 -415 -669
-94 -45 -161 -59 -275 -58 -363 2 -604 235 -641 622 -7 68 -8 51 -5 -85 4
-200 21 -280 90 -420 111 -227 349 -354 619 -330 153 13 270 67 381 174 33 33
70 64 82 70 34 17 347 15 381 -3 84 -44 114 -134 70 -214 -13 -24 -37 -52 -55
-63 l-32 -20 -16 30 c-18 35 -43 51 -81 51 l-27 0 20 -22 c11 -13 23 -35 27
-50 7 -30 -16 -98 -33 -98 -6 0 -11 -4 -11 -10 0 -14 62 0 84 19 10 9 24 28
30 43 7 15 27 38 46 50 52 34 83 101 76 162 -5 47 -5 48 13 32 10 -9 36 -20
57 -23 21 -4 45 -11 52 -17 37 -28 142 -130 142 -137 0 -4 -14 -3 -32 2 -17 5
-33 7 -36 5 -13 -14 -21 -169 -14 -281 8 -119 7 -132 -10 -148 -28 -27 -21
-37 15 -22 37 15 44 36 46 136 1 74 14 149 32 194 l12 30 7 -30 c4 -16 8 -45
9 -63 1 -24 18 -59 57 -115 52 -76 56 -84 45 -111 -6 -16 -8 -32 -6 -35 9 -8
60 36 58 50 0 8 -20 56 -44 106 -23 51 -40 95 -37 98 3 3 17 0 32 -6 20 -10
29 -10 38 -1 7 7 8 12 2 13 -49 4 -92 32 -112 73 -19 39 -7 93 29 128 16 16
29 34 29 39 0 5 4 9 10 9 16 0 32 80 25 130 -8 60 -38 110 -65 110 -31 0 -34
-23 -11 -96 12 -37 21 -73 21 -81 0 -28 -42 -11 -95 38 -51 48 -55 55 -55 96
0 48 -15 50 -25 3 -4 -16 -19 -43 -35 -60 -22 -24 -36 -30 -70 -30 -52 0 -76
13 -100 53 -11 18 -20 26 -20 19 0 -8 -10 -6 -28 8 -44 33 -94 40 -252 39 -81
-1 -145 2 -144 7 0 5 21 52 46 104 93 189 131 385 126 645 -2 88 -5 129 -6 90z
m522 -966 c29 -23 34 -39 11 -39 -40 0 -1 -40 68 -69 49 -21 55 -29 35 -49
-19 -19 -25 -16 -94 51 -78 73 -90 93 -73 113 15 19 21 18 53 -7z"/>
<path d="M5074 2088 l-29 -33 33 29 c17 17 32 31 32 33 0 8 -8 1 -36 -29z"/>
<path d="M4332 2090 c0 -14 2 -19 5 -12 2 6 2 18 0 25 -3 6 -5 1 -5 -13z"/>
<path d="M2821 2084 c0 -11 3 -14 6 -6 3 7 2 16 -1 19 -3 4 -6 -2 -5 -13z"/>
<path d="M3384 1985 c0 -49 1 -71 3 -48 2 23 2 64 0 90 -2 26 -3 8 -3 -42z"/>
<path d="M2831 2004 c0 -11 3 -14 6 -6 3 7 2 16 -1 19 -3 4 -6 -2 -5 -13z"/>
<path d="M4321 1994 c0 -11 3 -14 6 -6 3 7 2 16 -1 19 -3 4 -6 -2 -5 -13z"/>
<path d="M4959 1963 l-34 -38 38 34 c20 19 37 36 37 38 0 8 -8 0 -41 -34z"/>
<path d="M5673 1965 c-3 -9 -3 -19 1 -22 3 -4 6 1 6 11 0 10 5 14 12 10 7 -4
8 -3 4 4 -10 16 -15 15 -23 -3z"/>
<path d="M2841 1954 c0 -11 3 -14 6 -6 3 7 2 16 -1 19 -3 4 -6 -2 -5 -13z"/>
<path d="M5661 1904 c0 -11 3 -14 6 -6 3 7 2 16 -1 19 -3 4 -6 -2 -5 -13z"/>
<path d="M4912 1870 c0 -14 2 -19 5 -12 2 6 2 18 0 25 -3 6 -5 1 -5 -13z"/>
<path d="M3061 1834 c0 -11 3 -14 6 -6 3 7 2 16 -1 19 -3 4 -6 -2 -5 -13z"/>
<path d="M4891 1774 c0 -11 3 -14 6 -6 3 7 2 16 -1 19 -3 4 -6 -2 -5 -13z"/>
<path d="M1298 1769 c-16 -9 -15 -14 12 -56 16 -26 33 -61 36 -80 3 -18 10
-33 15 -33 14 0 11 54 -3 68 -10 10 -10 15 2 22 8 5 23 10 32 10 9 0 20 5 24
12 10 16 -27 40 -52 34 -16 -4 -23 0 -27 14 -6 22 -14 24 -39 9z"/>
<path d="M1243 1734 c-4 -11 1 -22 13 -31 12 -9 18 -23 16 -39 -4 -26 21 -74
38 -74 17 0 11 43 -14 96 -27 58 -43 73 -53 48z"/>
<path d="M4872 1690 c0 -14 2 -19 5 -12 2 6 2 18 0 25 -3 6 -5 1 -5 -13z"/>
<path d="M3091 1644 c0 -11 3 -14 6 -6 3 7 2 16 -1 19 -3 4 -6 -2 -5 -13z"/>
<path d="M3085 1580 c-11 -4 -50 -11 -87 -15 -62 -7 -66 -9 -70 -35 l-4 -27
60 24 c33 12 65 23 72 23 6 0 22 9 35 20 26 21 25 23 -6 10z"/>
<path d="M3846 1567 c3 -10 9 -15 12 -12 3 3 0 11 -7 18 -10 9 -11 8 -5 -6z"/>
<path d="M1358 1543 c-2 -20 -8 -28 -20 -27 -15 2 -18 -7 -18 -62 0 -68 12
-84 63 -84 21 0 26 8 42 66 17 64 17 68 0 100 -24 44 -62 48 -67 7z"/>
<path d="M5271 1434 c-12 -15 -21 -31 -21 -35 0 -12 17 -11 25 1 4 6 17 4 37
-6 22 -11 29 -21 25 -35 -9 -33 13 -32 27 2 32 77 -44 136 -93 73z"/>
<path d="M221 1344 c0 -11 3 -14 6 -6 3 7 2 16 -1 19 -3 4 -6 -2 -5 -13z"/>
<path d="M5100 1339 c0 -8 16 -29 35 -48 21 -19 35 -27 35 -19 0 8 -16 29 -35
48 -22 22 -35 29 -35 19z"/>
<path d="M7520 1305 c-19 -22 -8 -25 13 -3 9 10 13 18 8 18 -5 0 -14 -7 -21
-15z"/>
<path d="M260 1225 c0 -5 5 -17 10 -25 5 -8 10 -10 10 -5 0 6 -5 17 -10 25 -5
8 -10 11 -10 5z"/>
<path d="M7301 1194 c-12 -15 -21 -35 -21 -45 0 -29 32 -101 40 -92 7 7 40
139 40 157 0 17 -41 2 -59 -20z"/>
<path d="M5105 1199 c-10 -15 1 -23 20 -15 9 3 13 10 10 16 -8 13 -22 13 -30
-1z"/>
<path d="M314 1185 c-8 -19 2 -45 17 -45 9 0 9 3 0 14 -6 7 -9 21 -5 30 3 9 3
16 0 16 -4 0 -9 -7 -12 -15z"/>
<path d="M1110 1185 c-6 -8 -10 -18 -8 -23 5 -15 48 6 48 23 0 19 -24 20 -40
0z"/>
<path d="M5501 1175 c-1 -11 -4 -31 -6 -45 l-6 -25 11 25 c6 13 9 33 7 45 -4
19 -4 19 -6 0z"/>
<path d="M273 1142 c-24 -4 -32 -22 -10 -22 15 0 43 18 37 22 -3 2 -15 2 -27
0z"/>
<path d="M7367 1080 l-42 -39 33 -1 c17 0 32 -3 32 -7 0 -5 11 -13 25 -20 29
-13 32 -7 9 19 -16 16 -15 18 2 25 23 8 34 22 34 46 0 32 -47 20 -93 -23z"/>
<path d="M7205 1100 c-13 -20 6 -48 37 -54 41 -8 46 -1 21 32 -22 29 -47 39
-58 22z"/>
<path d="M7460 1025 c-14 -16 -10 -18 14 -9 9 3 16 10 16 15 0 14 -16 11 -30
-6z"/>
<path d="M3430 1005 c0 -8 4 -15 10 -15 5 0 7 7 4 15 -4 8 -8 15 -10 15 -2 0
-4 -7 -4 -15z"/>
<path d="M4698 953 c-53 -8 -20 -33 44 -33 23 0 47 16 37 24 -9 7 -56 12 -81
9z"/>
<path d="M5443 935 c-13 -9 -28 -26 -34 -38 l-12 -22 24 22 c41 36 76 34 124
-8 44 -39 46 -24 3 18 -41 40 -76 49 -105 28z"/>
<path d="M4713 892 c-52 -4 -56 -19 -9 -27 41 -8 68 -4 73 11 5 15 -13 20 -64
16z"/>
<path d="M1370 875 c0 -10 10 -15 31 -15 27 0 30 2 19 15 -7 8 -21 15 -31 15
-11 0 -19 -7 -19 -15z"/>
<path d="M3990 621 c0 -5 7 -12 16 -15 14 -5 15 -4 4 9 -14 17 -20 19 -20 6z"/>
<path d="M4016 507 c-5 -20 -14 -29 -36 -34 -29 -5 -36 -13 -24 -26 20 -19 82
45 72 74 -3 8 -8 1 -12 -14z"/>
</g>
</svg>
