<?xml version="1.0" standalone="no"?>
<!DOCTYPE svg PUBLIC "-//W3C//DTD SVG 20010904//EN"
 "http://www.w3.org/TR/2001/REC-SVG-20010904/DTD/svg10.dtd">
<svg version="1.0" xmlns="http://www.w3.org/2000/svg"
 width="416.000000pt" height="416.000000pt" viewBox="0 0 416.000000 416.000000"
 preserveAspectRatio="xMidYMid meet">

<g transform="translate(0.000000,416.000000) scale(0.100000,-0.100000)"
fill="#000000" stroke="none">
<path d="M1943 3113 c9 -2 25 -2 35 0 9 3 1 5 -18 5 -19 0 -27 -2 -17 -5z"/>
<path d="M2016 3110 c12 -5 25 -14 29 -20 4 -7 18 -102 31 -212 17 -144 21
-205 14 -219 -6 -10 -8 -19 -6 -19 3 0 10 9 16 20 8 16 6 64 -9 193 -12 95
-23 186 -26 204 -7 37 -29 63 -53 62 -13 0 -12 -2 4 -9z"/>
<path d="M1863 3103 c9 -2 23 -2 30 0 6 3 -1 5 -18 5 -16 0 -22 -2 -12 -5z"/>
<path d="M1783 3093 c9 -2 23 -2 30 0 6 3 -1 5 -18 5 -16 0 -22 -2 -12 -5z"/>
<path d="M1693 3083 c9 -2 25 -2 35 0 9 3 1 5 -18 5 -19 0 -27 -2 -17 -5z"/>
<path d="M1613 3073 c9 -2 25 -2 35 0 9 3 1 5 -18 5 -19 0 -27 -2 -17 -5z"/>
<path d="M1533 3063 c9 -2 23 -2 30 0 6 3 -1 5 -18 5 -16 0 -22 -2 -12 -5z"/>
<path d="M1443 3053 c9 -2 25 -2 35 0 9 3 1 5 -18 5 -19 0 -27 -2 -17 -5z"/>
<path d="M1363 3043 c9 -2 23 -2 30 0 6 3 -1 5 -18 5 -16 0 -22 -2 -12 -5z"/>
<path d="M1273 3033 c9 -2 25 -2 35 0 9 3 1 5 -18 5 -19 0 -27 -2 -17 -5z"/>
<path d="M1198 3023 c6 -2 18 -2 25 0 6 3 1 5 -13 5 -14 0 -19 -2 -12 -5z"/>
<path d="M1145 2996 c-14 -21 -10 -69 50 -582 64 -552 79 -663 68 -511 l-5 79
50 -50 c45 -46 154 -112 183 -112 6 0 -20 16 -58 35 -75 37 -183 139 -183 172
0 18 -44 395 -55 481 -6 41 -5 43 14 33 11 -6 30 -11 43 -10 25 1 19 4 -24 13
-34 8 -42 34 -63 221 -9 77 -18 157 -21 177 -4 28 -1 41 15 57 12 12 17 21 11
21 -5 0 -16 -11 -25 -24z"/>
<path d="M1988 2623 c6 -2 18 -2 25 0 6 3 1 5 -13 5 -14 0 -19 -2 -12 -5z"/>
<path d="M1903 2613 c9 -2 23 -2 30 0 6 3 -1 5 -18 5 -16 0 -22 -2 -12 -5z"/>
<path d="M1813 2603 c9 -2 25 -2 35 0 9 3 1 5 -18 5 -19 0 -27 -2 -17 -5z"/>
<path d="M1733 2593 c9 -2 23 -2 30 0 6 3 -1 5 -18 5 -16 0 -22 -2 -12 -5z"/>
<path d="M1653 2583 c9 -2 23 -2 30 0 6 3 -1 5 -18 5 -16 0 -22 -2 -12 -5z"/>
<path d="M1568 2573 c6 -2 18 -2 25 0 6 3 1 5 -13 5 -14 0 -19 -2 -12 -5z"/>
<path d="M1483 2563 c9 -2 23 -2 30 0 6 3 -1 5 -18 5 -16 0 -22 -2 -12 -5z"/>
<path d="M1403 2553 c9 -2 23 -2 30 0 6 3 -1 5 -18 5 -16 0 -22 -2 -12 -5z"/>
<path d="M1313 2543 c9 -2 23 -2 30 0 6 3 -1 5 -18 5 -16 0 -22 -2 -12 -5z"/>
<path d="M1662 2287 l-142 -143 0 -628 c0 -626 2 -656 33 -656 5 0 3 8 -6 18
-15 17 -17 76 -17 642 l0 624 140 140 140 141 0 -118 c0 -65 -5 -128 -11 -140
-10 -21 -10 -21 5 -3 13 16 16 47 16 143 0 68 -3 123 -8 123 -4 0 -71 -64
-150 -143z"/>
<path d="M2714 2412 c15 -17 16 -81 14 -779 -2 -419 0 -759 5 -756 4 2 7 204
7 448 l0 444 54 -55 c30 -30 60 -54 66 -54 6 0 -8 15 -31 33 -23 17 -53 52
-66 76 -23 43 -23 50 -23 337 0 253 -2 295 -16 308 -22 22 -31 20 -10 -2z"/>
<path d="M1864 2015 c-7 -18 3 -35 21 -35 21 0 28 19 15 35 -16 19 -29 19 -36
0z"/>
<path d="M2357 2024 c-16 -16 -7 -44 14 -44 15 0 20 5 17 22 -3 22 -19 33 -31
22z"/>
<path d="M2097 1913 c18 -2 50 -2 70 0 21 2 7 4 -32 4 -38 0 -55 -2 -38 -4z"/>
<path d="M2020 1900 c-18 -12 -2 -12 25 0 13 6 15 9 5 9 -8 0 -22 -4 -30 -9z"/>
<path d="M2249 1889 c25 -11 52 -25 60 -32 12 -9 13 -9 7 1 -9 15 -80 52 -98
52 -7 0 7 -10 31 -21z"/>
<path d="M1965 1870 c-16 -11 -25 -20 -20 -20 10 0 64 39 55 40 -3 0 -18 -9
-35 -20z"/>
<path d="M1973 1563 c64 -2 170 -2 235 0 64 1 11 3 -118 3 -129 0 -182 -2
-117 -3z"/>
<path d="M1867 1363 c133 -2 353 -2 490 0 136 1 28 2 -242 2 -269 0 -381 -1
-248 -2z"/>
<path d="M1893 1223 c126 -2 328 -2 450 0 122 1 20 2 -228 2 -247 0 -347 -1
-222 -2z"/>
<path d="M2578 1223 c7 -3 16 -2 19 1 4 3 -2 6 -13 5 -11 0 -14 -3 -6 -6z"/>
<path d="M1753 1093 c70 -2 184 -2 255 0 70 1 12 3 -128 3 -140 0 -198 -2
-127 -3z"/>
<path d="M2178 808 c5 -89 9 -97 11 -20 0 39 -2 72 -6 72 -5 0 -7 -24 -5 -52z"/>
<path d="M2070 779 c0 -33 4 -58 8 -55 12 7 13 116 1 116 -5 0 -9 -27 -9 -61z"/>
</g>
</svg>
