<?xml version="1.0" standalone="no"?>
<!DOCTYPE svg PUBLIC "-//W3C//DTD SVG 20010904//EN"
 "http://www.w3.org/TR/2001/REC-SVG-20010904/DTD/svg10.dtd">
<svg version="1.0" xmlns="http://www.w3.org/2000/svg"
 width="300.000000pt" height="300.000000pt" viewBox="0 0 300.000000 300.000000"
 preserveAspectRatio="xMidYMid meet">

<g transform="translate(0.000000,300.000000) scale(0.100000,-0.100000)"
fill="#000000" stroke="none">
<path d="M835 1490 c0 -201 1 -283 2 -183 2 101 2 265 0 365 -1 101 -2 19 -2
-182z"/>
<path d="M117 1748 l-37 -22 2 -175 3 -175 140 -83 c77 -46 143 -83 147 -83 4
0 7 78 7 173 l-1 172 37 21 37 21 -36 22 c-33 21 -37 21 -65 7 -16 -9 -33 -21
-36 -27 -4 -6 -6 -67 -6 -135 2 -86 -1 -124 -9 -124 -6 0 -43 19 -81 41 l-70
42 3 131 3 130 38 22 39 21 -35 22 c-41 25 -34 25 -80 -1z"/>
<path d="M1010 1580 l0 -190 120 0 c73 0 120 4 120 10 0 6 -40 10 -100 10
l-100 0 0 180 c0 173 -1 180 -20 180 -19 0 -20 -7 -20 -190z"/>
<path d="M2755 1580 c0 -174 1 -190 18 -190 16 0 17 16 17 190 0 174 -1 190
-17 190 -17 0 -18 -16 -18 -190z"/>
<path d="M563 1742 l-33 -17 0 -132 0 -132 -30 -16 c-25 -13 -30 -22 -30 -51
l0 -35 63 35 62 35 3 131 3 131 30 18 31 19 -23 16 c-28 19 -35 19 -76 -2z"/>
<path d="M1381 1660 c-41 -10 -70 -35 -55 -50 7 -7 18 -2 34 15 17 18 34 25
61 25 32 0 41 -5 54 -30 13 -26 21 -80 11 -80 -2 0 -21 7 -42 16 -98 41 -187
-59 -124 -139 27 -35 76 -43 126 -22 25 10 40 12 42 5 2 -5 11 -10 20 -10 15
0 17 13 14 114 -3 102 -5 116 -25 133 -27 24 -70 33 -116 23z m84 -135 c34
-33 33 -77 -1 -104 -54 -43 -124 -14 -124 51 0 69 77 102 125 53z"/>
<path d="M1899 1660 c-50 -14 -71 -30 -59 -45 9 -11 15 -9 35 11 30 30 84 32
108 6 10 -11 17 -36 17 -62 l0 -43 -21 19 c-31 28 -100 26 -132 -4 -85 -80 12
-201 118 -146 19 10 31 11 33 5 2 -6 12 -11 23 -11 17 0 19 8 19 99 0 107 -9
144 -37 159 -29 15 -76 20 -104 12z m78 -132 c30 -28 31 -80 2 -109 -47 -47
-141 2 -125 65 16 63 79 85 123 44z"/>
<path d="M2503 1660 c-61 -14 -93 -60 -93 -137 0 -84 58 -143 137 -143 37 1
116 37 108 50 -4 6 -16 3 -32 -10 -28 -22 -91 -27 -124 -10 -22 12 -49 61 -49
90 0 19 6 20 105 20 99 0 105 1 105 20 0 79 -76 137 -157 120z m72 -16 c20 -8
45 -56 45 -89 0 -25 0 -25 -86 -25 l-87 0 6 36 c11 65 64 100 122 78z"/>
<path d="M1620 1525 c0 -128 1 -135 20 -135 19 0 20 7 20 99 0 84 3 102 21
125 22 28 48 33 67 14 10 -10 15 -10 22 2 13 21 3 30 -36 30 -23 0 -38 -6 -46
-20 -7 -11 -16 -20 -20 -20 -5 0 -8 9 -8 20 0 13 -7 20 -20 20 -19 0 -20 -7
-20 -135z"/>
<path d="M2114 1643 c26 -80 104 -248 117 -251 12 -2 30 32 71 133 31 75 51
134 45 132 -5 -1 -29 -50 -52 -107 -23 -57 -46 -105 -51 -107 -5 -1 -29 47
-53 107 -35 86 -48 110 -63 110 -14 0 -18 -5 -14 -17z"/>
<path d="M1026 1297 c-23 -17 -18 -65 9 -83 16 -11 25 -11 45 -1 48 24 33 97
-20 97 -9 0 -24 -6 -34 -13z m65 -23 c9 -11 10 -20 2 -32 -24 -39 -82 -15 -68
28 8 24 47 27 66 4z"/>
<path d="M1631 1263 l-1 -53 34 0 c26 0 36 5 41 20 8 27 -11 50 -40 50 -14 0
-25 7 -28 18 -3 9 -5 -7 -6 -35z m57 -16 c4 -21 -27 -35 -38 -17 -12 19 0 42
19 38 9 -2 17 -11 19 -21z"/>
<path d="M1298 1288 c-9 -28 7 -73 27 -75 11 -2 14 0 8 3 -16 7 -17 54 -2 54
6 0 4 7 -5 15 -18 18 -23 19 -28 3z"/>
<path d="M1842 1284 c-7 -8 -8 -14 -2 -14 5 0 10 -13 10 -29 0 -29 24 -49 35
-31 4 6 -1 10 -9 10 -23 0 -21 50 2 51 13 0 14 2 2 6 -8 3 -17 9 -20 13 -3 4
-11 2 -18 -6z"/>
<path d="M2558 1288 c-8 -24 5 -69 23 -79 13 -6 19 -6 19 1 0 5 -4 10 -10 10
-5 0 -10 11 -10 25 0 14 5 25 11 25 6 0 4 7 -5 15 -18 18 -23 19 -28 3z"/>
<path d="M1143 1245 c-2 -41 14 -48 19 -8 5 42 35 42 47 1 l10 -33 -2 35 c-2
32 -5 35 -37 38 -34 3 -35 1 -37 -33z"/>
<path d="M1371 1266 c-7 -8 -10 -24 -6 -36 5 -17 13 -20 38 -18 28 3 32 7 32
33 0 25 -4 31 -26 33 -14 2 -31 -4 -38 -12z m53 -12 c7 -19 -1 -34 -19 -34
-18 0 -28 17 -21 35 7 20 32 19 40 -1z"/>
<path d="M1470 1231 c0 -31 4 -51 11 -51 6 0 8 7 5 16 -5 13 -2 15 13 11 29
-7 54 15 49 44 -2 20 -9 25 -40 27 l-38 3 0 -50z m63 27 c6 -19 -3 -38 -18
-38 -18 0 -28 17 -21 35 7 18 33 20 39 3z"/>
<path d="M1743 1250 c2 -32 5 -35 35 -38 31 -3 32 -2 31 35 -1 36 -2 37 -8 8
-4 -21 -12 -30 -26 -30 -14 0 -22 9 -27 30 -6 29 -6 29 -5 -5z"/>
<path d="M1960 1246 c0 -42 17 -49 22 -9 2 17 10 29 21 31 13 3 17 -3 17 -27
0 -17 5 -31 11 -31 6 0 9 14 7 33 -3 29 -6 32 -40 35 -37 3 -38 3 -38 -32z"/>
<path d="M2077 1274 c-13 -14 -7 -53 11 -62 9 -5 26 -6 37 -1 17 7 17 8 -7 8
-35 1 -37 21 -2 21 19 0 25 5 22 18 -3 17 -48 29 -61 16z m48 -14 c4 -6 -5
-10 -20 -10 -15 0 -24 4 -20 10 3 6 12 10 20 10 8 0 17 -4 20 -10z"/>
<path d="M2175 1248 c7 -18 19 -33 26 -33 7 0 19 15 26 33 7 17 9 32 4 32 -5
0 -12 -11 -15 -25 -4 -14 -10 -25 -15 -25 -5 0 -12 11 -15 25 -4 14 -11 25
-16 25 -5 0 -3 -15 5 -32z"/>
<path d="M2267 1274 c-13 -14 -7 -53 11 -62 9 -5 26 -6 37 -1 18 7 17 8 -7 8
-39 1 -46 21 -8 21 25 0 31 4 28 18 -3 17 -48 29 -61 16z m48 -14 c4 -6 -5
-10 -20 -10 -15 0 -24 4 -20 10 3 6 12 10 20 10 8 0 17 -4 20 -10z"/>
<path d="M2360 1245 c0 -19 5 -35 10 -35 6 0 10 11 10 25 0 13 8 29 18 34 14
9 13 10 -10 11 -25 0 -28 -3 -28 -35z"/>
<path d="M2477 1273 c-13 -13 -7 -24 21 -35 l27 -11 -30 -6 c-27 -6 -28 -7 -9
-13 12 -3 27 -2 34 2 17 10 5 40 -15 40 -23 0 -18 18 8 23 20 4 20 4 -4 6 -14
0 -29 -2 -32 -6z"/>
<path d="M2631 1266 c-16 -19 -6 -52 19 -59 28 -7 53 15 48 44 -4 29 -47 39
-67 15z m53 -12 c7 -19 -1 -34 -19 -34 -18 0 -28 17 -21 35 7 20 32 19 40 -1z"/>
<path d="M2730 1231 c0 -28 5 -51 10 -51 6 0 10 7 10 16 0 10 6 14 14 11 23
-9 48 16 44 44 -2 20 -9 25 -40 27 l-38 3 0 -50z m64 23 c7 -19 -1 -34 -19
-34 -18 0 -28 17 -21 35 7 20 32 19 40 -1z"/>
</g>
</svg>
